<svg version="1" xmlns="http://www.w3.org/2000/svg" width="682.667" height="682.667" viewBox="0 0 512.000000 512.000000"><path d="M179.5 1.4c-8.8 2.8-15.1 8-17.9 14.8-2.3 5.4-2.4 79.4-.1 83.7 3.7 7.2 13.6 12.5 27.9 15 3.9.7 38.4 1.1 99.5 1.1 103.4-.1 103.9-.1 116-6.2 3.9-2 7.8-4.9 9.6-7.1l3-3.9.3-38.1c.2-26.2 0-39.4-.8-42-1.4-4.7-7.1-11.2-12.2-13.8C396 .4 380.7-1.2 367.1 1c-17.8 2.9-43.5 15.9-68.4 34.6l-9.8 7.4-11.2-7.9C251.6 16.7 231.5 6.3 213.5 2c-9.3-2.3-27.7-2.6-34-.6zM213.4 18c10.8 2.7 24.2 8.8 36.6 16.6 16.8 10.5 18.6 9.7-21 9.1-40.6-.6-45.6-1.4-53.2-8.5-3.8-3.5-3.7-7.3.5-11.8 6.6-7.2 21.6-9.4 37.1-5.4zM396 19c4.6 2.6 9 8 9 11.1 0 3.1-4.9 7.7-10.6 9.9-8.4 3.1-22.2 4.1-52.8 3.8l-27.8-.3 8.8-5.8c11.5-7.6 28.7-15.9 39.4-19.1 7.2-2.2 10.1-2.6 19-2.3 9 .2 11.1.6 15 2.7zm-99.9 47c6.7 3.5 10.2 11.5 7.9 18.4-1.5 4.5-7.9 10.3-12.5 11.2-7.6 1.4-16.6-4.8-18.1-12.4-2-9.7 5.5-19 15.4-19.2 1.8 0 5.1.9 7.3 2z"/><path d="M80 103.8v42.7L93 328c7.1 99.8 13 182.1 13 182.7 0 1 12.5 1.3 59 1.3h59v-4.8c0-2.6-1.6-56.5-3.5-119.7-1.9-63.3-3.5-118.3-3.5-122.3 0-3.9-.3-7.2-.7-7.2-.5.1-6.2 9.5-12.8 21-6.6 11.6-12.1 20.4-12.3 19.8-.1-.7-2.6-15.1-5.6-32.1-2.9-16.9-5.6-31-5.9-31.4-.4-.3-14.3 4.4-30.9 10.5-16.6 6.1-30.4 11-30.5 10.8-.2-.1 16.1-28.8 36.2-63.6s36.7-63.7 36.8-64.3c.1-.5-2.7-1.6-6.3-2.3-17.2-3.3-29.6-11.2-34.6-21.9-2.2-4.7-2.4-6.2-2.4-24.3V61H80v42.8z"/><path d="M207.6 125.2c-4 6.2-62.5 108.3-62.2 108.5.2.2 10.1-3.3 22.1-7.7 12-4.4 21.9-8 22-8 .1 0 1.9 10.3 4 23 2.2 12.6 4.2 23 4.5 23 .6 0 81-139.3 81-140.3 0-.4-15.7-.7-35-.7h-35l-1.4 2.2zM299 124c0 .5 18.1 32.3 40.2 70.6 31 53.7 40.4 69.3 40.9 67.8.5-1 2.4-11.3 4.3-22.8 2-11.5 3.7-21 3.9-21.2.1-.2 9.9 3.2 21.7 7.6 11.8 4.3 21.6 7.5 21.8 7.1.1-.4-13.9-25.2-31.2-55.2l-31.4-54.4-35.1-.3c-22.4-.1-35.1.1-35.1.8zM395 126c-1.4.4-4 .8-5.7.9-1.8.1-3.3.5-3.3 1 0 .6 2.6 5.4 5.7 10.8 5.5 9.4 5.8 9.7 6.4 6.8.9-4.3 1-20.5.2-20.4-.5.1-1.9.5-3.3.9zM276.3 153l-12.1 21-4.6 154.3c-2.5 84.8-4.8 160.8-5.2 168.9l-.6 14.8h118l.6-4.8c.3-2.6 3.8-49.9 7.7-105.2l7.1-100.5-48.9-84.7c-26.8-46.6-49-84.7-49.3-84.8-.3 0-6 9.5-12.7 21z"/></svg>